<svg width="36" height="26" viewBox="0 0 36 26" fill="none" xmlns="http://www.w3.org/2000/svg">
<path d="M35.1753 0.752403C34.9372 0.513992 34.6539 0.324759 34.3418 0.195622C34.0296 0.0664855 33.6948 0 33.3566 0C33.0185 0 32.6837 0.0664855 32.3715 0.195622C32.0594 0.324759 31.776 0.513992 31.5379 0.752403L12.4542 19.7279L4.43645 11.7409C4.1892 11.5037 3.89733 11.3173 3.57751 11.1921C3.25768 11.0669 2.91616 11.0056 2.57245 11.0115C2.22873 11.0174 1.88956 11.0904 1.57428 11.2265C1.25901 11.3626 0.97381 11.559 0.734973 11.8045C0.496135 12.05 0.308336 12.3398 0.182297 12.6574C0.0562571 12.975 -0.0055549 13.3141 0.000391712 13.6554C0.00633832 13.9967 0.0799268 14.3335 0.216954 14.6466C0.353982 14.9597 0.551765 15.2429 0.799013 15.48L10.6355 25.2476C10.8736 25.486 11.1569 25.6752 11.4691 25.8044C11.7812 25.9335 12.116 26 12.4542 26C12.7923 26 13.1271 25.9335 13.4393 25.8044C13.7515 25.6752 14.0348 25.486 14.2729 25.2476L35.1753 4.49155C35.4354 4.25335 35.6429 3.96427 35.7848 3.6425C35.9267 3.32073 36 2.97325 36 2.62197C36 2.27069 35.9267 1.92322 35.7848 1.60145C35.6429 1.27968 35.4354 0.990594 35.1753 0.752403Z" fill="#FF005C"/>
</svg>
