<svg width="255" height="77" viewBox="0 0 255 77" fill="none" xmlns="http://www.w3.org/2000/svg">
<path d="M178.677 30.394L179.768 22.8583H179.852L182.959 29.0543L185.982 22.8583H186.066L187.157 30.394H186.402L185.646 25.0353L182.959 30.394H182.791L180.104 24.9516L179.349 30.394H178.677Z" fill="white"/>
<path d="M192.615 22.8583H196.981V23.6119H193.371V25.9563H196.897V26.7099H193.371V29.6404H196.897V30.394H192.615V22.8583Z" fill="white"/>
<path d="M202.187 22.8583H206.553V23.6119H202.943V25.9563H206.469V26.7099H202.943V29.6404H206.469V30.394H202.187V22.8583Z" fill="white"/>
<path d="M211.004 23.6119V22.8583H215.118V23.6119H213.438V30.394H212.683V23.6119H211.004Z" fill="white"/>
<path d="M220.072 22.8583H220.827V30.394H220.072V22.8583Z" fill="white"/>
<path d="M226.537 30.394V22.8583H226.705L231.743 28.6357V22.8583H232.499V30.394H232.331L227.377 24.7004V30.394H226.537Z" fill="white"/>
<path d="M245.513 24.1147L244.925 24.7008C244.506 24.2821 244.002 23.9472 243.582 23.7797C243.078 23.5286 242.574 23.4448 242.155 23.4448C241.567 23.4448 240.979 23.6123 240.475 23.8635C239.971 24.1147 239.552 24.5333 239.216 25.0357C238.88 25.5381 238.796 26.0404 238.796 26.6266C238.796 27.2127 238.964 27.715 239.216 28.2174C239.552 28.7198 239.971 29.1384 240.475 29.3896C240.979 29.6408 241.567 29.8083 242.239 29.8083C242.994 29.8083 243.666 29.5571 244.17 29.1384C244.673 28.7198 245.009 28.1337 245.093 27.4638H242.658V26.794H245.933C245.933 27.9662 245.597 28.8873 244.925 29.5571C244.254 30.2269 243.33 30.5618 242.155 30.5618C240.727 30.5618 239.636 30.0595 238.88 29.1384C238.292 28.3849 237.956 27.5476 237.956 26.6266C237.956 25.873 238.124 25.2869 238.46 24.617C238.796 24.0309 239.3 23.5286 239.971 23.1936C240.559 22.8587 241.315 22.6913 242.071 22.6913C242.742 22.6913 243.33 22.775 243.918 23.0262C244.422 23.2774 244.925 23.6123 245.513 24.1147Z" fill="white"/>
<path d="M250.55 28.9706L251.222 28.5519C251.642 29.3892 252.229 29.8079 252.817 29.8079C253.069 29.8079 253.321 29.7242 253.489 29.6404C253.741 29.5567 253.909 29.3892 253.993 29.1381C254.077 28.9706 254.161 28.7194 254.161 28.4682C254.161 28.217 254.077 27.9658 253.909 27.7146C253.657 27.3797 253.237 26.9611 252.649 26.5424C251.977 26.0401 251.642 25.7051 251.474 25.5377C251.222 25.2028 251.054 24.7841 251.054 24.3655C251.054 24.0305 251.138 23.7794 251.306 23.4444C251.474 23.1932 251.726 22.9421 251.977 22.7746C252.229 22.6071 252.565 22.5234 252.901 22.5234C253.237 22.5234 253.573 22.6071 253.909 22.7746C254.244 22.9421 254.58 23.277 254.916 23.7794L254.328 24.2817C254.077 23.9468 253.825 23.6956 253.573 23.5282C253.321 23.3607 253.153 23.3607 252.901 23.3607C252.565 23.3607 252.313 23.4444 252.145 23.6119C251.977 23.7794 251.893 24.0305 251.893 24.2817C251.893 24.4492 251.893 24.6167 251.977 24.7841C252.061 24.9516 252.145 25.119 252.313 25.2865C252.397 25.3702 252.733 25.6214 253.321 26.0401C253.993 26.5424 254.412 26.9611 254.664 27.296C254.916 27.6309 255 28.0496 255 28.4682C255 29.0543 254.832 29.473 254.412 29.8916C253.993 30.3103 253.489 30.4777 252.901 30.4777C252.481 30.4777 252.061 30.394 251.642 30.1428C251.222 29.8916 250.802 29.5567 250.55 28.9706Z" fill="white"/>
<path d="M179.013 34.8315H182.791V35.5851H179.768V37.9295H182.791V38.6831H179.768V42.3672H179.013V34.8315Z" fill="white"/>
<path d="M191.691 34.6642C192.867 34.6642 193.791 35.0828 194.546 35.8364C195.302 36.5899 195.722 37.511 195.722 38.6832C195.722 39.7717 195.302 40.6927 194.546 41.4463C193.791 42.1998 192.867 42.6185 191.775 42.6185C190.684 42.6185 189.676 42.1998 188.921 41.4463C188.165 40.6927 187.745 39.7717 187.745 38.6832C187.745 37.9296 187.913 37.2598 188.249 36.6737C188.585 36.0876 189.089 35.5852 189.676 35.2503C190.348 34.8316 190.936 34.6642 191.691 34.6642ZM191.691 35.4177C191.104 35.4177 190.6 35.5852 190.096 35.8364C189.592 36.0876 189.173 36.5062 188.921 37.0086C188.669 37.511 188.501 38.0133 188.501 38.6832C188.501 39.6042 188.837 40.3578 189.424 40.9439C190.012 41.53 190.768 41.8649 191.691 41.8649C192.279 41.8649 192.783 41.6974 193.287 41.4463C193.791 41.1951 194.21 40.7764 194.462 40.274C194.714 39.7717 194.882 39.2693 194.882 38.5994C194.882 38.0133 194.714 37.4272 194.462 37.0086C194.21 36.5899 193.791 36.1713 193.287 35.8364C192.783 35.5014 192.279 35.4177 191.691 35.4177Z" fill="white"/>
<path d="M201.178 34.8315H202.69C203.529 34.8315 204.117 34.8315 204.369 34.9152C204.789 34.9989 205.209 35.2501 205.461 35.5851C205.713 35.92 205.88 36.3386 205.88 36.841C205.88 37.2596 205.796 37.5946 205.629 37.9295C205.461 38.2644 205.125 38.5156 204.789 38.5993C204.453 38.6831 203.949 38.8505 203.278 38.8505L205.964 42.3672H205.041L202.354 38.8505H201.934V42.3672H201.178V34.8315ZM201.934 35.5851V38.1807H203.194C203.697 38.1807 204.033 38.0969 204.285 38.0132C204.537 37.9295 204.705 37.762 204.873 37.5946C205.041 37.3434 205.041 37.1759 205.041 36.9247C205.041 36.6735 204.957 36.4223 204.873 36.2549C204.705 36.0874 204.537 35.92 204.369 35.8362C204.117 35.7525 203.781 35.6688 203.278 35.6688H201.934V35.5851Z" fill="white"/>
<path d="M179.013 46.8049H182.791V47.5585H179.768V49.9029H182.791V50.6565H179.768V54.3406H179.013V46.8049Z" fill="white"/>
<path d="M188.081 46.8049H192.447V47.5585H188.837V49.9029H192.363V50.6565H188.837V53.587H192.363V54.3406H188.081V46.8049Z" fill="white"/>
<path d="M197.653 46.8049H202.019V47.5585H198.409V49.9029H201.935V50.6565H198.409V53.587H201.935V54.3406H197.653V46.8049Z" fill="white"/>
<path d="M207.225 46.8049H207.981V53.587H210.92V54.3406H207.225V46.8049Z" fill="white"/>
<path d="M215.874 46.8049H216.629V54.3406H215.874V46.8049Z" fill="white"/>
<path d="M222.338 54.3406V46.8049H222.506L227.544 52.5823V46.8049H228.299V54.3406H228.131L223.177 48.647V54.3406H222.338Z" fill="white"/>
<path d="M241.314 48.0607L240.726 48.6468C240.306 48.2282 239.802 47.8932 239.383 47.7258C238.879 47.4746 238.375 47.3909 237.955 47.3909C237.367 47.3909 236.78 47.5583 236.276 47.8095C235.772 48.0607 235.352 48.4793 235.016 48.9817C234.681 49.4841 234.597 49.9865 234.597 50.5726C234.597 51.1587 234.765 51.6611 235.016 52.1635C235.352 52.6658 235.772 53.0845 236.276 53.3357C236.78 53.5869 237.367 53.7543 238.039 53.7543C238.795 53.7543 239.467 53.5031 239.97 53.0845C240.474 52.6658 240.81 52.0797 240.894 51.4099H238.459V50.6563H241.734C241.734 51.8285 241.398 52.7496 240.726 53.4194C240.054 54.0892 239.131 54.4242 237.955 54.4242C236.528 54.4242 235.436 53.9218 234.681 53.0007C234.093 52.2472 233.757 51.4099 233.757 50.4889C233.757 49.7353 233.925 49.1492 234.261 48.4793C234.597 47.8932 235.1 47.3909 235.772 47.0559C236.36 46.721 237.116 46.5536 237.871 46.5536C238.543 46.5536 239.131 46.6373 239.718 46.8885C240.222 47.2234 240.726 47.5583 241.314 48.0607Z" fill="white"/>
<path d="M246.352 53.0007L247.023 52.5821C247.443 53.4194 248.031 53.838 248.619 53.838C248.871 53.838 249.123 53.7543 249.291 53.6706C249.542 53.5869 249.71 53.4194 249.794 53.1682C249.878 53.0007 249.962 52.7496 249.962 52.4984C249.962 52.2472 249.878 51.996 249.71 51.7448C249.458 51.4099 249.039 50.9912 248.451 50.5726C247.779 50.0702 247.443 49.7353 247.275 49.5678C247.023 49.2329 246.856 48.8143 246.856 48.3956C246.856 48.0607 246.939 47.8095 247.107 47.4746C247.275 47.2234 247.527 46.9722 247.779 46.8048C248.031 46.6373 248.367 46.5536 248.703 46.5536C249.039 46.5536 249.374 46.6373 249.71 46.8048C250.046 46.9722 250.382 47.3071 250.718 47.8095L250.13 48.3119C249.878 47.977 249.626 47.7258 249.374 47.5583C249.123 47.3909 248.955 47.3909 248.703 47.3909C248.367 47.3909 248.115 47.4746 247.947 47.642C247.779 47.8095 247.695 48.0607 247.695 48.3119C247.695 48.4793 247.695 48.6468 247.779 48.8143C247.863 48.9817 247.947 49.1492 248.115 49.3166C248.199 49.4004 248.535 49.6516 249.123 50.0702C249.794 50.5726 250.214 50.9912 250.466 51.3262C250.718 51.6611 250.802 52.0797 250.802 52.4984C250.802 53.0845 250.634 53.5031 250.214 53.9218C249.794 54.3404 249.291 54.5079 248.703 54.5079C248.283 54.5079 247.863 54.4242 247.443 54.173C247.023 53.9218 246.688 53.5031 246.352 53.0007Z" fill="white"/>
<path d="M16.541 48.312H5.62562V11.3872H0V53.7544H20.9911C19.2279 52.1636 17.7165 50.3215 16.541 48.312Z" fill="white"/>
<path d="M51.1345 45.2975C51.8062 43.4554 52.142 41.3622 52.142 39.269C52.142 31.4821 47.44 24.8674 40.7229 21.9369C39.2955 21.3508 37.7841 20.8484 36.2728 20.5972C35.2652 20.4298 34.2576 20.346 33.25 20.346C22.7545 20.4298 14.2741 28.8865 14.2741 39.3527C14.2741 42.6182 15.1137 45.6324 16.5411 48.3118C17.6327 50.405 19.144 52.2471 20.9912 53.7542C23.6781 56.0149 26.9527 57.522 30.5632 58.0244V64.8903H23.846V70.249H30.5632V76.9473H35.9369V70.249H42.6541V64.8903H35.9369V58.0244C41.4786 57.2709 46.2645 54.0054 49.2033 49.5677C47.608 49.3165 46.1806 48.8979 44.7532 48.228C42.0663 51.661 37.9521 53.8379 33.334 53.8379C25.3574 53.8379 18.8082 47.307 18.8082 39.3527C18.8082 31.3984 25.3574 24.8674 33.334 24.8674C33.6699 24.8674 34.0057 24.8674 34.3416 24.9512C35.8529 25.0349 37.2803 25.3698 38.7077 25.9559C44.0815 28.0492 47.9438 33.3241 47.9438 39.4364C47.9438 41.1947 47.608 42.8693 47.0202 44.4602C48.1957 44.8789 49.6231 45.2138 51.1345 45.2975Z" fill="#FF005C"/>
<path d="M62.5542 41.0277L54.4936 23.5281H48.7001L58.1881 44.1257C59.7834 43.2884 61.2948 42.2836 62.5542 41.0277Z" fill="white"/>
<path d="M59.9503 48.061L63.2249 55.2617H64.9042L79.4301 23.5281H73.6365L70.9497 29.4729C70.9497 29.9753 71.0336 30.4777 71.0336 30.8964C71.0336 38.5158 66.4995 45.0467 59.9503 48.061Z" fill="white"/>
<path d="M63.8133 0V5.3587H73.4692L63.1416 15.5737C60.0349 13.313 56.2565 11.9734 52.0583 11.9734C45.3411 11.9734 39.5476 15.4063 36.105 20.6812C37.7003 20.9324 39.1277 21.3511 40.5551 22.0209C43.242 18.588 47.3562 16.411 51.9743 16.411C59.9509 16.411 66.5001 22.9419 66.5001 30.8963C66.5001 34.8316 64.9048 38.4319 62.3859 41.0276C61.1264 42.2835 59.6151 43.372 58.0197 44.1256C56.1725 44.9629 54.1574 45.4652 52.0583 45.4652C51.7224 45.4652 51.3865 45.4652 51.0507 45.3815C49.5393 45.2978 48.028 44.9629 46.6845 44.3768C41.3108 42.2835 37.4484 37.0085 37.4484 30.8963C37.4484 29.138 37.7843 27.4634 38.3721 25.8725C37.0286 25.3701 35.5173 25.0352 34.0059 24.8677C33.3342 26.7098 32.9983 28.803 32.9983 30.8963C32.9983 38.6831 37.7003 45.2978 44.4175 48.2283C45.8449 48.8144 47.3562 49.3168 48.8676 49.568C49.8752 49.7355 50.8828 49.8192 51.8903 49.8192C54.6612 49.8192 57.348 49.2331 59.699 48.1446C66.2482 45.1303 70.7823 38.5994 70.7823 30.98C70.7823 30.4776 70.7823 29.9752 70.6984 29.5566C70.3625 25.705 68.9351 22.2721 66.752 19.4253L77.2476 9.12654V18.6717H82.6213V5.3587V0H63.8133Z" fill="#00CAF9"/>
<path d="M114.863 39.6879C114.863 35.4177 113.604 31.7336 111.337 28.8868C108.146 24.784 103.78 22.7745 98.3223 22.7745C93.1165 22.7745 88.8343 24.7841 85.7276 28.8031C83.2926 31.9011 82.0332 35.5015 82.0332 39.5205C82.0332 43.7907 83.4606 47.6423 86.3993 50.9915C89.3381 54.3406 93.4523 56.099 98.5742 56.099C100.925 56.099 103.024 55.764 104.871 55.0105C106.719 54.3406 108.398 53.2522 109.909 51.9125C111.421 50.5728 112.68 48.7308 113.772 46.5538L114.108 45.8839L109.574 43.4558L109.238 44.0419C108.062 45.9677 107.055 47.3073 106.047 48.1446C105.123 48.9819 103.948 49.6518 102.52 50.1542C101.177 50.6565 99.7497 50.9077 98.2383 50.9077C95.2156 50.9077 92.7806 49.903 90.6815 47.8097C88.8343 45.8839 87.7428 43.372 87.5748 40.4415H114.863V39.6879ZM88.2465 35.5852C89.0022 33.4082 90.0098 31.7336 91.2693 30.6451C93.2844 28.8868 95.6354 27.9658 98.4062 27.9658C100.086 27.9658 101.681 28.3007 103.276 29.0543C104.788 29.7241 106.047 30.7289 106.971 31.8173C107.726 32.8221 108.398 34.078 108.818 35.5852H88.2465Z" fill="white"/>
<path d="M131.74 22.6907C130.145 22.6907 128.634 23.1931 127.206 24.1141C126.283 24.7002 125.443 25.4538 124.603 26.4586V23.528H119.146V55.2616H124.603V44.2093C124.603 39.018 124.855 35.5851 125.275 33.9942C125.863 31.901 126.703 30.3939 127.794 29.3891C128.886 28.4681 129.977 27.9657 131.069 27.9657C131.489 27.9657 132.076 28.1332 132.832 28.4681L133.42 28.7193L136.191 24.1979L135.519 23.7792C134.259 23.1094 133 22.6907 131.74 22.6907Z" fill="white"/>
<path d="M137.701 26.2074H141.983L142.739 11.8058H137.029L137.701 26.2074Z" fill="white"/>
<path d="M158.02 36.5899C155.753 35.4177 154.242 34.4129 153.57 33.5756C152.899 32.822 152.647 32.0685 152.647 31.2312C152.647 30.3101 152.983 29.5566 153.738 28.8867C154.494 28.2169 155.418 27.7982 156.509 27.7982C158.272 27.7982 160.204 28.7193 162.135 30.6451L162.638 31.1474L166.165 27.4633L165.661 26.961C162.722 24.1141 159.7 22.6907 156.677 22.6907C154.074 22.6907 151.891 23.528 150.212 25.2026C148.532 26.8772 147.609 28.9705 147.609 31.4824C147.609 33.4081 148.113 35.0827 149.204 36.5899C150.296 38.097 152.227 39.5204 155.082 41.0275C158.104 42.6184 159.28 43.5394 159.784 44.0418C160.371 44.7954 160.707 45.6327 160.707 46.5537C160.707 47.7259 160.287 48.647 159.28 49.568C158.356 50.4053 157.181 50.9077 155.753 50.9077C153.738 50.9077 151.807 49.9029 149.96 47.8097L149.372 47.1398L145.93 50.9914L146.349 51.4938C147.441 52.9172 148.868 54.0057 150.548 54.843C152.227 55.6803 153.99 56.0152 155.921 56.0152C158.776 56.0152 161.127 55.0941 162.974 53.2521C164.822 51.41 165.829 49.0656 165.829 46.3863C165.829 44.4605 165.241 42.7021 164.15 41.195C163.058 39.6879 161.043 38.1807 158.02 36.5899Z" fill="white"/>
</svg>
