<svg width="30" height="22" viewBox="0 0 30 22" fill="none" xmlns="http://www.w3.org/2000/svg">
<path d="M29.3128 0.636648C29.1143 0.434916 28.8783 0.274796 28.6181 0.165527C28.358 0.056257 28.079 0 27.7972 0C27.5154 0 27.2364 0.056257 26.9763 0.165527C26.7161 0.274796 26.48 0.434916 26.2816 0.636648L10.3785 16.6929L3.69704 9.93461C3.491 9.73393 3.24778 9.57614 2.98126 9.47023C2.71473 9.36433 2.43013 9.3124 2.14371 9.31739C1.85728 9.32239 1.57463 9.38422 1.3119 9.49936C1.04917 9.61449 0.811509 9.78067 0.612477 9.98842C0.413446 10.1962 0.256947 10.4414 0.151914 10.7101C0.0468809 10.9789 -0.00462908 11.2658 0.000326427 11.5546C0.00528193 11.8434 0.0666056 12.1284 0.180795 12.3933C0.294985 12.6582 0.459804 12.8978 0.665844 13.0985L8.86288 21.3634C9.06133 21.5651 9.29742 21.7252 9.55755 21.8345C9.81767 21.9437 10.0967 22 10.3785 22C10.6603 22 10.9393 21.9437 11.1994 21.8345C11.4595 21.7252 11.6956 21.5651 11.8941 21.3634L29.3128 3.80054C29.5295 3.59899 29.7024 3.35438 29.8207 3.08211C29.9389 2.80985 30 2.51583 30 2.21859C30 1.92136 29.9389 1.62734 29.8207 1.35507C29.7024 1.08281 29.5295 0.838195 29.3128 0.636648Z" fill="#7143AB"/>
</svg>
